<?xml version="1.0" encoding="utf-8"?>
<!-- Generator: Adobe Illustrator 16.0.0, SVG Export Plug-In . SVG Version: 6.00 Build 0)  -->
<!DOCTYPE svg PUBLIC "-//W3C//DTD SVG 1.1//EN" "http://www.w3.org/Graphics/SVG/1.1/DTD/svg11.dtd">
<svg version="1.1" id="Calque_1" xmlns="http://www.w3.org/2000/svg" xmlns:xlink="http://www.w3.org/1999/xlink" x="0px" y="0px"
	 width="432px" height="432px" viewBox="0 0 432 432" enable-background="new 0 0 432 432" xml:space="preserve">
<g>
	<path d="M96.083,156.248c1.202,0.542,2.453,0.979,3.689,1.443c0.632,0.237,1.298,0.389,1.915,0.658
		c0.832,0.363,1.015,1.156,0.472,1.873c-0.167,0.222-0.374,0.435-0.607,0.58c-0.725,0.452-0.815,1.075-0.594,1.832
		c0.48,1.641,1.399,2.959,2.91,3.777c0.759,0.411,1.594,0.697,2.417,0.969c1.08,0.355,1.567,1.049,1.398,2.165
		c-0.046,0.306-0.121,0.608-0.205,0.906c-0.501,1.779,0.545,2.83,1.675,3.359c0.893,0.418,1.844,0.494,2.809,0.435
		c3.251-0.202,5.989-1.454,8.069-4.01c0.822-1.01,1.714-1.944,2.77-2.709c1.117-0.81,2.244-1.606,3.384-2.383
		c0.344-0.235,0.73-0.439,1.127-0.561c1.053-0.319,2.005,0.279,2.206,1.36c0.05,0.273,0.019,0.561,0.041,0.84
		c0.113,1.485,0.203,2.973,0.364,4.453c0.057,0.521,0.232,1.052,0.463,1.524c0.826,1.694,2.736,2.396,4.402,1.563
		c0.872-0.436,1.677-1.022,2.462-1.608c0.57-0.426,0.921-1.049,1.169-1.727c0.457-1.246,0.486-2.464-0.109-3.686
		c-0.408-0.838-0.715-1.713-0.771-2.66c-0.083-1.389,0.491-2.423,1.727-3.021c0.625-0.302,1.331-0.438,2-0.647
		c0.186-0.059,0.373-0.114,0.559-0.171c-0.25-0.139-0.471-0.171-0.692-0.18c-1.967-0.085-3.936-0.146-5.901-0.252
		c-2.554-0.14-5.016-0.675-7.332-1.803c-0.936-0.455-1.882-0.893-2.834-1.313c-4.299-1.899-8.758-3.049-13.502-2.938
		c-0.935,0.021-1.874-0.173-2.932-0.28c0.166-0.163,0.209-0.234,0.273-0.265c1.028-0.481,2.095-0.784,3.242-0.855
		c4.242-0.263,8.29,0.67,12.252,2.023c1.753,0.599,3.4,1.502,5.145,2.131c3.87,1.395,7.81,2.56,11.876,3.249
		c0.438,0.075,0.871,0.188,1.305,0.284c-0.099-0.236-0.23-0.379-0.385-0.485c-1.466-1.018-2.723-2.26-3.935-3.563
		c-1.42-1.526-2.893-3.013-4.66-4.143c-1.301-0.831-2.651-1.591-4.01-2.327c-0.956-0.517-1.779-1.175-2.521-1.956
		c-0.228-0.24-0.465-0.485-0.74-0.665c-1.707-1.113-3.259-2.402-4.609-3.936c-0.707-0.803-1.455-1.569-2.176-2.359
		c-0.797-0.873-1.601-1.741-2.372-2.636c-0.65-0.754-1.012-1.648-1.106-2.679c0.781,0.555,1.549,1.117,2.224,1.775
		c1.958,1.91,3.681,4.029,5.379,6.172c0.89,1.122,1.888,2.158,2.837,3.232c0.641,0.726,1.401,1.178,2.351,1.504
		c2.909,1.001,5.649,2.373,8.166,4.173c1.183,0.847,2.164,1.862,3.017,3.039c1.105,1.525,2.283,2.999,3.436,4.489
		c0.09,0.116,0.231,0.192,0.349,0.286c0.053-0.023,0.105-0.048,0.159-0.071c-0.068-0.283-0.133-0.566-0.204-0.848
		c-0.363-1.444-0.767-2.88-1.083-4.335c-0.522-2.391-0.973-4.798-1.487-7.19c-0.153-0.713-0.372-1.419-0.64-2.096
		c-0.341-0.863-0.751-1.698-1.15-2.537c-0.377-0.793-0.549-1.611-0.446-2.475c1.594,0.458,2.468,1.633,3.109,2.979
		c1.405,2.952,2.334,6.037,2.277,9.349c-0.029,1.659-0.121,3.317-0.174,4.976c-0.011,0.338,0.025,0.677,0.04,1.015
		c0.896-1.263,2.143-1.914,3.361-2.63c1.259-0.739,2.497-1.53,3.667-2.401c1.095-0.815,1.934-1.883,2.435-3.181
		c0.29-0.751,0.191-1.291-0.41-1.824c-0.311-0.276-0.682-0.494-1.049-0.694c-0.827-0.449-0.965-0.737-0.719-1.626
		c0.053-0.19,0.112-0.38,0.141-0.573c0.087-0.591-0.042-0.836-0.599-1.041c-0.314-0.116-0.651-0.174-0.979-0.252
		c-0.875-0.207-1.085-0.691-0.639-1.485c0.069-0.122,0.146-0.241,0.232-0.353c0.947-1.234,1.028-2.557,0.479-3.984
		c-0.648-1.686-1.354-3.341-2.312-4.876c-0.919-1.475-1.53-3.067-1.894-4.762c-0.577-2.687-1.223-5.363-1.019-8.314
		c-0.216,0.21-0.317,0.29-0.396,0.388c-0.442,0.546-0.826,1.152-1.328,1.637c-2.293,2.214-3.735,4.984-5.167,7.765
		c-0.497,0.965-0.85,1.965-0.604,3.081c0.029,0.134,0.018,0.283-0.006,0.42c-0.074,0.425-0.336,0.637-0.772,0.596
		c-0.221-0.021-0.458-0.065-0.65-0.169c-1.236-0.667-2.505-1.286-3.68-2.05c-1.351-0.878-1.961-2.219-1.889-3.831
		c0.051-1.152,0.165-2.302,0.246-3.452c0.209-2.95-0.936-4.295-3.885-4.564c-0.561-0.052-1.125-0.077-1.682-0.16
		c-0.771-0.115-1.062-0.464-1.111-1.244c-0.021-0.337-0.011-0.678-0.065-1.01c-0.224-1.386-1.055-2.202-2.449-2.389
		c-0.529-0.071-1.066-0.086-1.6-0.107c-0.692-0.029-1.217-0.319-1.661-0.861c-0.498-0.607-1.054-1.17-1.614-1.722
		c-0.883-0.868-1.817-1.687-2.684-2.569c-1.902-1.938-3.687-3.964-4.528-6.857c-0.677,1.98-1.321,3.75-1.887,5.544
		c-0.993,3.149-2.19,6.204-3.797,9.099c-0.612,1.103-1.164,2.259-1.574,3.448c-0.951,2.754-1.336,5.639-1.757,8.508
		c-0.193,1.314,0.063,2.584,0.732,3.747c1.533,2.665,3.159,5.266,5.352,7.458c0.179,0.179,0.373,0.346,0.536,0.538
		c0.474,0.561,0.427,1.266-0.164,1.703c-0.308,0.229-0.691,0.369-1.059,0.498c-0.45,0.158-0.923,0.249-1.379,0.394
		c-0.61,0.192-1.107,0.558-1.465,1.088c-0.245,0.363-0.342,0.728-0.109,1.18c0.613,1.188,0.121,2.103-1.225,2.271
		c-0.582,0.072-1.18,0-1.768,0.037c-0.697,0.044-1.396,0.107-2.084,0.223c-0.212,0.035-0.459,0.228-0.572,0.418
		c-0.397,0.67-1.001,0.925-1.715,0.834c-0.719-0.092-1.43-0.279-2.132-0.473c-0.879-0.242-1.745-0.534-2.616-0.805
		c-0.041,0.055-0.082,0.11-0.122,0.165c0.621,1.025,1.234,2.055,1.865,3.074C93.453,154.524,94.613,155.585,96.083,156.248z"/>
	<path d="M359.714,267.68c-3.224-3.967-6.424-7.954-9.713-11.867c-2.256-2.685-4.656-5.256-6.281-8.4
		c-1.537-2.972-3.024-5.975-2.057-9.48c-0.425-0.413-0.779-0.788-1.166-1.125c-0.433-0.376-0.931-0.682-1.34-1.08
		c-1.229-1.199-1.08-2.48,0.354-3.428c0.654-0.432,1.296-0.88,2.046-1.391c-1.38-1.345-2.91-1.787-4.637-1.557
		c-0.965,0.13-1.905,0.469-2.871,0.566c-2.795,0.285-5.596,0.673-8.397,0.693c-3.804,0.026-6.376-2.331-6.937-6.073
		c-0.203-1.358-0.261-2.743-0.299-4.119c-0.1-3.535,1.674-5.907,4.833-7.216c1.248-0.518,2.646-0.713,3.996-0.926
		c1.187-0.188,2.406-0.157,3.604-0.291c2.269-0.254,4.333-1.019,6.163-2.442c2.04-1.587,4.212-3.011,6.202-4.655
		c1.443-1.193,2.685-2.631,4.179-4.122c-2.776-1.481-4.704-3.51-6.397-5.776c-1.823-2.439-3.605-4.91-5.438-7.343
		c-0.689-0.916-1.466-1.767-2.213-2.638c-0.682-0.797-1.562-1.098-2.603-1.101c-2.968-0.007-5.761,0.36-8.367,2.097
		c-1.585,1.056-3.549,1.585-5.395,2.195c-1.359,0.45-2.127-0.133-2.469-1.576c-0.05-0.213-0.085-0.429-0.135-0.684
		c-1.324,0.061-2.584,0.186-3.841,0.16c-2.176-0.044-2.959-1.488-1.879-3.357c0.424-0.734,0.854-1.465,1.312-2.253
		c-0.85-0.759-1.803-0.992-2.756-1.099c-4.148-0.46-8.274-0.336-12.099,1.487c0.303-1.938,0.378-3.919,0.171-5.962
		c2.537-0.14,4.619-1.188,6.491-2.667c5.09-4.023,9.072-8.939,11.684-14.897c1.184-2.701,1.994-5.518,1.704-8.527
		c-0.075-0.779-0.238-1.549-0.361-2.322c1.694,0.025,3.303,0.177,4.888,0.049c5.457-0.443,10.727-1.66,15.151-5.065
		c6.95-5.349,9.982-12.677,10.139-21.296c0.042-2.323-0.471-4.571-1.561-6.647c-0.92-1.753-2.317-2.974-4.403-3.85
		c0.792,1.583,1.453,2.854,2.067,4.146c1.375,2.892,1.717,5.922,1.207,9.075c-0.502,3.099-1.599,5.986-3.037,8.753
		c-4.795,9.225-15.218,14.442-25.499,12.785c-1.331-0.215-1.749,0.175-1.339,1.495c0.77,2.48,0.446,4.907-0.264,7.295
		c-2.167,7.286-6.444,13.143-12.336,17.86c-0.755,0.604-1.609,1.126-2.492,1.518c-0.753,0.334-1.614,0.426-2.422,0.624
		c-0.253-0.416-0.366-0.689-0.553-0.894c-0.692-0.752-1.357-1.541-2.133-2.198c-0.514-0.434-1.2-0.411-1.737,0.092
		c-0.561,0.525-0.47,1.165-0.104,1.729c0.308,0.475,0.667,0.986,1.133,1.271c0.917,0.561,1.119,1.39,1.186,2.335
		c0.172,2.449-0.186,4.835-0.851,7.172c-0.982,0.632-1.95,1.293-2.928,1.927c-4.482,2.902-7.392,6.961-9.45,11.604
		c-0.503-0.072-0.98-0.292-1.413-0.783c-0.215-0.243-0.569-0.393-0.886-0.512c-0.758-0.284-1.491-0.229-2.048,0.419
		c-0.596,0.692-0.421,1.386,0.143,2.009c0.872,0.964,1.053,2.138,1.056,3.367c0.011,5.168-4.027,9.986-9.326,11.186
		c-1.095,0.248-1.9,0.078-2.793-0.726c-0.342-0.307-0.708-0.594-1.084-0.87c14.075-22.266,16.247-49.58,16.247-55.974
		c0-7.935-7.184-61.784-15.805-84.773c-28.493-6.379-57.216-6.49-86.21,0c-8.621,22.989-15.805,76.839-15.805,84.773
		c0,11.506,3.957,55.444,35.642,76.256c-0.118,0.836-0.188,1.69-0.194,2.571c-0.011,1.63,0.098,3.217,0.309,4.766
		c-2.309,0.376-4.1,1.999-5.024,4.692c-0.881,2.566-0.815,5.135-0.026,7.701c1.107,3.601,3.014,6.718,5.676,9.37
		c-2.389-2.311-5.254-4.057-8.702-5.061c-0.596-0.173-0.829-0.528-1.082-1.025c-0.568-1.116-1.164-2.226-1.847-3.272
		c-0.417-0.64-1.007-1.072-1.814-1.409c-0.024-1.674-0.649-3.217-1.944-4.594c-2.534-2.695-6.295-2.295-8.229,0.851
		c-0.302,0.491-0.564,1.02-0.759,1.562c-0.817,2.271-1.06,4.605-0.685,6.999c0.064,0.409,0.099,0.823,0.148,1.243
		c-1.424,0.038-1.985-0.126-2.982-1.027c-3.766-3.401-5.25-7.768-5.304-12.721c-0.004-0.37,0.094-0.741,0.142-1.093
		c0.844-0.137,1.615-0.212,2.36-0.394c1.01-0.246,1.889-0.744,2.476-1.647c1.026-1.58,0.285-3.174-1.59-3.368
		c-1.23-0.128-2.358,0.108-3.357,0.735c0.803-3.144,0.88-6.362,0.903-9.581c0.006-0.885-0.125-1.778-0.273-2.654
		c-0.119-0.712-0.349-1.381-0.613-2.038c0.005-0.004,0.012-0.006,0.017-0.01c1.396-0.931,1.369-2.865-0.014-3.783
		c-0.536-0.354-1.245-0.55-1.895-0.614c-1.555-0.151-2.949,0.396-4.226,1.256c-0.065,0.044-0.122,0.088-0.186,0.133
		c-1.031-0.588-1.997-1.419-2.983-2.28c-0.072,0.542-0.127,0.98-0.184,1.396c-1.18-1.361-1.548-3.153-1.211-4.529
		c0.434-1.771,1.116-3.484,1.739-5.205c0.787-2.175,2.222-3.819,4.212-4.999c0.496-0.293,0.934-0.686,1.391-1.041
		c1.711-1.332,2.58-3.104,2.663-5.251c0.034-0.866,0.035-1.748-0.083-2.604c-0.66-4.786-1.975-9.4-4.379-13.595
		c-2.96-5.165-7.169-8.953-13.013-10.653c-0.596-0.174-0.829-0.529-1.082-1.026c-0.568-1.116-1.164-2.226-1.847-3.272
		c-0.579-0.888-1.475-1.384-2.849-1.768c0.834,2.12,1.544,3.927,2.271,5.772c-0.57,0.19-0.983,0.313-1.387,0.466
		c-2.798,1.057-4.754,3.969-4.638,6.896c0.094,2.361,1.63,4.3,3.762,4.748c2.137,0.45,4.305-0.697,5.353-2.824
		c0.594-1.205,0.735-2.492,0.719-3.81c-0.006-0.463-0.021-0.925-0.035-1.564c0.64,0.233,1.098,0.368,1.528,0.563
		c3.913,1.775,6.699,4.714,8.54,8.535c1.814,3.766,3,7.754,3.807,11.85c0.157,0.8,0.186,1.634,0.188,2.451
		c0.002,1.022-0.414,1.881-1.263,2.488c-0.746,0.534-1.499,1.06-2.26,1.571c-1.264,0.85-2.391,1.86-3.053,3.235
		c-1.007,2.087-2.017,4.188-2.807,6.361c-1.464,4.036-0.683,7.293,2.237,9.827c-0.68,0.388-1.532,0.489-2.449,0.204
		c-0.521-0.163-1.003-0.45-1.505-0.677c-0.283-0.127-0.569-0.247-0.977-0.423c0.065,0.662,0.141,1.162,0.159,1.665
		c0.069,1.807-1.095,3.113-2.894,3.19c-0.627,0.027-1.265-0.086-1.892-0.18c-2.179-0.322-4.354-0.67-6.533-0.991
		c-0.263-0.039-0.542,0.025-0.955,0.051c0.289,0.62,0.54,1.1,0.741,1.6c0.43,1.07,0.364,2.084-0.47,2.95
		c-0.739,0.769-1.832,0.931-2.947,0.467c-0.273-0.114-0.522-0.301-0.802-0.382c-0.421-0.122-0.861-0.18-1.405-0.287
		c0.068,0.472,0.124,0.755,0.147,1.042c0.102,1.252-0.485,2.242-1.643,2.736c-0.349,0.149-0.769,0.164-1.082,0.36
		c-0.707,0.444-1.448,0.883-2.023,1.473c-0.65,0.665-0.746,1.534-0.126,2.318c0.548,0.694,1.112,1.392,1.764,1.984
		c0.782,0.712,1.672,1.303,2.498,1.968c1.189,0.955,2.031,2.15,2.451,3.632c0.786,2.778-0.273,5.187-2.881,6.461
		c-1.564,0.764-3.238,1.051-4.954,0.818c-1.763-0.238-3.545-0.467-5.253-0.938c-3.304-0.914-6.601-0.955-9.959-0.443
		c-5.092,0.777-9.776,2.467-13.732,5.876c-0.235,0.202-0.434,0.448-0.647,0.672c0.147,0.132,0.2,0.216,0.271,0.238
		c3.893,1.252,7.531,3.057,11.146,4.949c2.475,1.295,4.73,2.797,6.655,4.823c1.881,1.979,4.099,3.557,6.372,5.049
		c1.248,0.819,1.479,0.768,2.599-0.244c0.872-0.786,1.965-0.97,2.945-0.493c0.966,0.47,1.536,1.476,1.442,2.619
		c-0.03,0.377-0.117,0.757-0.23,1.118c-0.369,1.174-0.758,2.341-1.149,3.507c-0.518,1.548-1.354,2.911-2.371,4.185
		c-1.359,1.702-3.093,2.696-5.233,3.113c-2.349,0.456-4.712,0.531-7.09,0.579c-6.829,0.136-12.501,2.759-16.927,7.996
		c-0.204,0.241-0.347,0.534-0.531,0.821c0.25,0.191,0.424,0.311,0.583,0.447c1.465,1.262,1.548,3.093,0.179,4.448
		c-0.39,0.386-0.859,0.691-1.266,1.063c-0.484,0.443-1.01,0.869-1.187,1.588c0.537,0.222,1.021,0.383,1.47,0.612
		c1.704,0.871,2.304,2.69,1.263,4.288c-0.625,0.96-0.721,1.837-0.381,2.87c0.686,2.084,0.056,3.703-1.706,4.999
		c-1.468,1.08-2.842,2.286-4.268,3.424c-2.21,1.764-4.084,3.826-5.566,6.236c-1.155,1.879-2.284,3.774-3.453,5.646
		c-2.326,3.728-5.06,7.119-8.339,10.06c-0.176,0.158-0.332,0.338-0.641,0.656c0.484,0.024,0.769,0.088,1.035,0.045
		c1.547-0.252,3.109-0.449,4.631-0.812c3.917-0.932,7.896-1.682,11.582-3.385c3.502-1.619,6.971-3.313,10.439-5.005
		c2.431-1.187,4.531-2.825,6.322-4.853c0.786-0.89,1.527-1.818,2.315-2.706c1.656-1.868,4.227-1.548,5.363,0.677
		c0.248,0.485,0.432,1.021,0.544,1.555c0.278,1.328,0.493,2.669,0.745,4.002c0.067,0.355,0.174,0.704,0.281,1.127
		c1.258-0.25,2.453-0.305,3.37,0.513c0.853,0.76,1.545,1.7,2.355,2.615c0.267-0.601,0.484-1.152,0.751-1.679
		c0.557-1.096,1.405-1.803,2.686-1.845c1.333-0.043,2.26,0.626,2.873,1.754c0.283,0.52,0.493,1.079,0.722,1.626
		c0.533,1.272,1.058,2.548,1.625,3.917c1.069-0.71,1.865-1.501,2.577-2.407c2.001-2.549,3.183-5.48,4.139-8.537
		c1.666-5.321,4.041-10.347,6.577-15.294c0.79-1.54,1.779-2.988,2.768-4.415c0.575-0.829,1.28-1.586,2.016-2.281
		c1.098-1.038,2.454-1.522,3.968-1.383c2.508,0.232,4.89,0.957,6.701,2.751c1.679,1.663,3.193,3.509,4.645,5.38
		c1.156,1.489,1.378,3.255,0.837,5.083c-0.229,0.772-0.472,1.541-0.724,2.306c-0.759,2.302-1.345,4.642-1.615,7.057
		c-0.578,5.172-0.354,10.337,0.116,15.5c0.022,0.242,0.102,0.479,0.211,0.969c0.216-0.529,0.331-0.825,0.456-1.116
		c0.782-1.83,1.518-3.682,2.36-5.483c1.616-3.457,3.314-6.876,4.938-10.329c0.966-2.055,1.474-4.24,1.66-6.502
		c0.157-1.903,0.31-3.806,0.497-5.706c0.083-0.842,0.149-1.704,0.387-2.508c0.715-2.409,3.367-3.053,5.127-1.265
		c0.412,0.418,0.75,0.921,1.065,1.421c0.587,0.934,1.127,1.896,1.699,2.839c0.164,0.271,0.369,0.517,0.697,0.969
		c0.157-0.701,0.285-1.176,0.367-1.658c0.142-0.836,0.192-1.692,0.392-2.513c0.535-2.199,2.574-3.089,4.541-2.027
		c0.281,0.152,0.565,0.3,0.874,0.464c0.289-1.602,0.039-3.93-0.61-5.968c-0.766-2.405,0.069-3.864,2.52-4.404
		c0.076-0.017,0.14-0.085,0.244-0.15c0.043-0.307,0.075-0.643,0.141-0.971c0.374-1.864,2.04-2.815,3.85-2.187
		c0.398,0.139,0.772,0.347,1.159,0.521c0.281,0.126,0.557,0.201,0.83,0.245c-1.53,4.528-0.196,8.063,3.881,10.676
		c0.08,0.051,0.145,0.126,0.306,0.271c-0.186,0.523-0.352,0.974-0.505,1.428c-1.246,3.676-1.123,7.328,0.27,10.931
		c0.969,2.508,2.646,4.36,5.224,5.308c0.442,0.163,0.871,0.363,1.316,0.551c-0.02,0.264-0.021,0.454-0.049,0.641
		c-0.535,3.521-0.079,6.949,1.05,10.291c0.313,0.928,0.718,1.802,1.168,2.649c-2.742,2.628-6.251,4.796-10.706,5.645
		c-15.086,2.873-40.949,13.649-14.368,18.679c31.882,6.031,46.61,5.861,77.589,0c15.621-2.955,13.128-7.895,5.357-12.05
		c1.443-0.562,2.871-1.272,4.282-2.14c3.65-2.241,5.82-5.476,6.456-9.686c0.611-4.042,0.574-8.104-0.094-12.139
		c-0.461-2.787-1.583-5.305-3.692-7.24c-3.848-3.529-8.468-5.064-13.615-4.506c-3.751,0.406-6.226,2.693-7.333,6.339
		c-0.606,1.993-0.584,4.005,0,6.008c0.22,0.754,0.443,1.507,0.682,2.318c-0.164-0.045-0.229-0.042-0.251-0.072
		c-0.263-0.345-0.515-0.699-0.779-1.044c-1.775-2.318-3.936-4.121-6.771-5.003c-4.011-1.246-7.249,0.407-8.61,4.374
		c-0.881,2.566-0.815,5.135-0.026,7.701c0.589,1.915,1.407,3.69,2.44,5.336c-9.003-6.027-11.813-17.711-11.813-17.711
		s0.387-37.521,0.593-59.77c0.069-0.042,0.139-0.079,0.208-0.121c0.011-0.007,0.02-0.015,0.031-0.021
		c3.255-0.371,6.473-1.306,9.646-2.774c2.722-1.26,4.853-3.322,6.345-5.912c1.083-1.881,1.943-3.898,2.793-5.901
		c0.319-0.75,0.685-1.224,1.475-1.499c2.711-0.947,5.157-2.187,7.362-3.69c-1.296,1.624-2.563,3.272-3.853,4.902
		c-2.556,3.23-4.425,6.839-5.629,10.786c-0.6,1.965-0.825,3.96-0.192,5.939c0.777,2.434,1.954,4.505,4.771,5.139
		c1.453,0.327,2.129,1.434,2.082,2.983c-0.024,0.8-0.198,1.594-0.301,2.392c-0.151,1.165-0.118,2.327,0.549,3.332
		c2.029,3.057,4.616,5.073,8.579,4.617c2.47-0.284,3.455,0.429,4.251,2.768c0.517,1.52,0.848,3.148,1.617,4.53
		c2.597,4.665,5.319,9.263,8.073,13.838c0.643,1.068,1.545,2,2.424,2.902c1.476,1.514,3.266,2.492,5.362,2.931
		c3.429,0.716,6.841,1.509,10.27,2.224c1.598,0.333,3.219,0.561,4.829,0.836c-0.14-0.632-0.419-0.965-0.696-1.3
		c-0.875-1.057-1.845-2.049-2.608-3.182c-4.977-7.391-5.708-15.729-5.278-24.298c0.097-1.938,0.889-3.457,3.185-3.686
		c-0.105-0.646-0.218-1.199-0.281-1.76c-0.102-0.91-0.241-1.825-0.236-2.738c0.007-1.229,0.501-2.225,1.701-2.764
		c0.246-0.11,0.456-0.302,0.693-0.464c-0.156-0.629-0.315-1.179-0.428-1.737c-0.346-1.703-0.478-3.415-0.072-5.13
		c0.653-2.759,2.374-4.226,5.205-4.427c1.641-0.117,3.253,0.152,4.69,0.9c2.132,1.11,4.268,2.262,6.225,3.645
		c2.246,1.586,4.312,3.43,6.432,5.189c2.551,2.117,5.396,3.681,8.538,4.737c1.904,0.64,3.797,0.744,5.768,0.325
		c2.075-0.44,4.171-0.81,6.273-1.092c1.967-0.263,3.802-0.844,5.534-1.793c2.486-1.362,5.109-2.381,7.908-2.846
		c3.17-0.525,6.359-0.941,9.541-1.404c0.609-0.088,1.219-0.174,2.129-0.305C360.467,268.771,360.131,268.192,359.714,267.68z
		 M143.285,176.452c-0.264,0.538-0.682,1.022-1.354,0.81c-0.661-0.21-0.758-0.848-0.669-1.436c0.207-1.365,0.836-2.424,2.448-2.876
		C143.915,174.275,143.803,175.396,143.285,176.452z M298.021,194.567c0.489-0.7,1.039-1.381,1.669-1.949
		c0.329-0.296,0.958-0.511,1.07,0.071c-0.495,0.453-0.962,0.716-1.181,1.115c-0.468,0.852-0.807,1.775-1.201,2.668
		c-1.354,3.075-3.111,5.873-5.512,8.259c-3.375,3.353-7.324,5.913-11.39,8.304c-1.307,0.769-2.81,0.989-4.333,0.904
		c-0.168-0.009-0.336-0.026-0.504-0.039c0.72-0.73,1.385-1.542,1.979-2.457c0.579-0.894,1.052-1.808,1.437-2.736
		c0.355-0.193,0.706-0.412,1.055-0.661c1.864-1.33,3.883-2.443,5.815-3.683c2.025-1.299,4.097-2.542,6.019-3.982
		C295.028,198.818,296.538,196.692,298.021,194.567z M259.242,77.322l9.579,45.844c0,0-14.847-36.137-31.131-42.016
		s-16.284-5.879-16.284-5.879S229.547,71.709,259.242,77.322z M203.271,234.151c1.563,0.803,3.095,1.76,4.505,2.835
		c-0.359,1.704-0.275,3.418,0.224,5.125c0.22,0.754,0.443,1.507,0.682,2.318c-0.164-0.045-0.229-0.042-0.251-0.071
		c-0.263-0.346-0.515-0.699-0.779-1.044c-0.995-1.3-2.117-2.428-3.405-3.332C203.697,238.057,203.392,236.109,203.271,234.151z
		 M210.282,249.474c-0.196-1.776-0.447-3.557-0.895-5.309c-0.497-1.946-0.63-3.922-0.053-5.892c3.139,2.79,5.366,6.152,5.366,9.521
		c0,0.861,0.016,3.17,0.043,6.458c-1.609-0.739-3.068-1.741-4.367-3.016C210.37,250.646,210.346,250.056,210.282,249.474z
		 M209.068,259.436c0.086,0.065,0.177,0.126,0.264,0.189c-0.095-0.033-0.19-0.062-0.286-0.097
		C209.055,259.494,209.061,259.469,209.068,259.436z M227.181,252.336c-0.197,1.036-0.548,1.96-1.038,2.781
		c0.032-3.75,0.051-6.388,0.051-7.323c0-1.306,0.347-2.609,0.938-3.882c0.228,0.208,0.46,0.409,0.7,0.604
		C227.892,247.135,227.674,249.744,227.181,252.336z M197.669,248.447c-0.387-1.313-0.518-2.651-0.177-4
		c0.206-0.814,0.475-1.174,0.993-1.122c1.164,3.706,2.978,7.16,5.332,10.387c-0.156,0.771-0.325,1.584-0.52,2.545
		C200.614,253.901,198.589,251.569,197.669,248.447z M199.3,261.146c-0.016,0.005-0.034,0.009-0.05,0.014
		c-0.196-0.225-0.392-0.45-0.596-0.667C198.859,260.7,199.07,260.916,199.3,261.146z M189.485,258.314
		c0.64,0.233,1.098,0.368,1.528,0.563c1.691,0.767,3.16,1.764,4.444,2.942c-1.93,0.088-4.012-0.126-6.003-0.57
		c0.046-0.452,0.071-0.909,0.065-1.371C189.514,259.416,189.5,258.953,189.485,258.314z M186.313,258.166
		c0.122,0.785,0.116,1.493-0.003,2.164c-0.673-0.253-1.302-0.539-1.896-0.843C184.797,258.888,185.39,258.425,186.313,258.166z
		 M181.893,255.416c0.979-1.157,1.74-2.441,2.198-3.891c0.08-0.254,0.137-0.502,0.193-0.751c0.493,1.253,0.958,2.437,1.427,3.628
		c-0.569,0.189-0.983,0.313-1.386,0.466c-1.21,0.457-2.248,1.273-3.043,2.276c-0.147-0.18-0.295-0.358-0.41-0.544
		C181.202,256.218,181.551,255.82,181.893,255.416z M178.424,247.523c1.643,1.001,1.538,2.633-0.22,4.387
		C177.82,250.383,177.9,248.976,178.424,247.523z M176.452,262.938c-1.602,0.472-3.1,0.302-4.494-0.653
		c-0.262-0.18-0.556-0.313-0.892-0.499c-0.245,1.184-0.42,2.271-0.698,3.332c-0.736,2.806-1.926,5.431-3.327,7.961
		c-1.508,2.725-2.808,5.545-3.298,8.635c-0.411,2.592-0.694,5.213-0.861,7.832c-0.28,4.39,0.395,8.714,1.098,13.033
		c0.262,1.604,0.34,3.238,0.524,5.074c-1.429-1.359-2.415-3.198-2.91-5.367c-1.311-5.743-1.783-11.56-1.484-17.441
		c0.237-4.665,1.49-9.018,3.958-13.005c0.536-0.865,1.03-1.757,1.507-2.655c1.159-2.184,2.085-4.46,2.515-6.905
		c0.171-0.975,0.217-1.971,0.321-2.962c-0.267-0.013-0.363-0.048-0.425-0.016c-0.3,0.156-0.592,0.328-0.883,0.5
		c-8.132,4.799-15.348,10.757-21.864,17.551c-3.463,3.611-6.759,7.386-10.042,11.164c-5.102,5.871-9.382,12.362-13.891,18.68
		c-0.167,0.234-0.364,0.448-0.546,0.672c1.259-3.184,2.798-6.194,4.694-9.012c6.037-8.971,13.05-17.13,20.547-24.902
		c4.592-4.761,9.616-8.962,15.261-12.405c1.697-1.035,3.481-1.928,5.223-2.89c0.372-0.205,0.736-0.425,1.25-0.724
		c-1.323-0.294-1.321-0.288-2.188-0.012c-1.624,0.517-3.271,0.886-4.992,0.853c-0.375-0.007-0.774,0.021-1.125,0.142
		c-2.297,0.79-4.602,0.675-6.892,0.04c-3.44-0.953-6.948-1.541-10.461-2.136c-6.663-1.128-12.811-0.005-18.421,3.876
		c-1.67,1.156-3.473,2.121-5.22,3.164c-0.178,0.106-0.393,0.152-0.806,0.307c1.028-1.709,1.943-3.194,3.232-4.382
		c4.157-3.827,9.015-6.174,14.683-6.599c4.555-0.342,9.076,0.065,13.508,1.188c1.887,0.478,3.731,1.124,5.589,1.713
		c2.058,0.653,4.132,0.895,6.271,0.431c0.457-0.1,0.778-0.236,0.855-0.783c-0.292-0.113-0.594-0.23-1.039-0.403
		c0.352-0.139,0.538-0.212,0.806-0.317c-2.153-2.548-2.167-5.239-0.886-8.052c0.263-0.578,0.601-1.121,0.887-1.689
		c0.074-0.146,0.146-0.294,0.219-0.44c0.153,1.934,0.565,3.84,1.199,5.719c0.878,2.602,2.284,4.9,4.267,6.824
		c1.991,1.932,4.362,2.845,7.131,2.504c0.776-0.097,1.245,0.078,1.722,0.688c0.557,0.712,1.182,1.35,1.841,1.947
		C177.429,262.658,176.939,262.794,176.452,262.938z M191.082,279.908c-1.16-0.522-2.332-1.022-3.461-1.604
		c-2.44-1.258-3.77-3.347-4.286-5.988c-0.401-2.049,0.287-3.679,2.021-4.837c0.251-0.168,0.518-0.314,0.788-0.455
		c4.137,1.332,8.461,1.593,12.95,0.853c0.208-0.034,0.414-0.074,0.62-0.114c1.721,3.663,2.865,7.53,3.646,11.5
		c0.157,0.8,0.185,1.633,0.187,2.451c0.003,1.022-0.414,1.881-1.263,2.488c-0.746,0.534-1.499,1.06-2.26,1.571
		c-0.345,0.231-0.676,0.479-0.994,0.739c-0.077-0.265-0.168-0.524-0.283-0.757c-0.919-1.865-2.262-3.389-4.175-4.306
		C193.425,280.9,192.242,280.43,191.082,279.908z M252.054,323.095c1.043-3.048,2.77-4.429,5.956-4.597
		c3.708-0.195,6.942,0.986,9.688,3.47c1.49,1.349,2.39,3.048,2.581,5.05c0.338,3.53,0.169,7.049-0.494,10.533
		c-0.511,2.687-2.025,4.627-4.433,5.938c-4.334,2.36-8.806,3.052-13.702,1.255c0.107-0.468,0.192-0.835,0.276-1.202
		c0.314-1.364,0.758-2.715,0.906-4.097c0.169-1.572,0.226-3.189,0.053-4.756c-0.196-1.776-0.447-3.557-0.895-5.309
		C251.461,327.305,251.334,325.195,252.054,323.095z M240.096,329.663c0.289-1.142,0.691-1.405,1.749-0.866
		c0.885,0.451,1.744,1.046,2.447,1.744c2.004,1.99,2.91,4.395,2.357,7.242c-0.218,1.124-0.454,2.245-0.748,3.688
		c-2.683-2.354-4.708-4.687-5.628-7.81C239.886,332.35,239.755,331.012,240.096,329.663z M215.418,323.227
		c0,0-1.523,6.346-5.927,12.098c-1.479-2.621-2.133-5.587-2.168-8.808c-0.004-0.37,0.094-0.741,0.142-1.093
		c0.844-0.137,1.615-0.212,2.36-0.394c1.01-0.247,1.889-0.744,2.476-1.647c1.025-1.58,0.285-3.174-1.59-3.369
		c-1.566-0.162-2.971,0.255-4.148,1.334c-0.349,0.32-0.688,0.652-1.009,0.958c-2.581-0.656-4.235-2.194-5.066-4.628
		c-0.933-2.731-1.024-5.5-0.32-8.288c0.171-0.678,0.508-1.314,0.721-1.849c1.459-0.037,2.727,0.038,3.958-0.139
		c0.879-0.127,1.806-0.446,2.541-0.936c1.396-0.931,1.369-2.865-0.015-3.783c-0.536-0.355-1.245-0.551-1.895-0.614
		c-1.555-0.152-2.949,0.396-4.226,1.255c-0.395,0.266-0.775,0.553-1.126,0.804c-2.947-1.104-3.936-4.056-3.439-6.083
		c0.434-1.771,1.117-3.484,1.739-5.205c0.787-2.176,2.222-3.819,4.213-4.999c0.496-0.293,0.934-0.686,1.391-1.042
		c1.711-1.331,2.579-3.104,2.663-5.251c0.034-0.866,0.036-1.747-0.083-2.604c-0.587-4.256-1.697-8.372-3.624-12.183
		c0.743-0.334,1.454-0.747,2.12-1.261c0.574-0.443,1.053-0.305,1.61-0.087c2.776,1.082,5.487,1.563,8.142,1.512
		C215.07,289.389,215.418,323.227,215.418,323.227z M236.731,249.426c-0.983,1.813-2.307,3.229-3.998,4.216
		c0.309-2.051,0.45-4.106,0.429-6.161c0.697,0.248,1.419,0.467,2.17,0.652c0.544,0.135,1.092,0.256,1.735,0.406
		C236.928,248.915,236.861,249.188,236.731,249.426z M239.44,240.235c-0.012,0.164-0.092,0.323-0.165,0.569
		c-2.845,0.099-5.496-1.005-7.347-2.854c1.714-1.466,3.671-2.758,5.683-3.793C238.879,235.936,239.599,238.1,239.44,240.235z
		 M248.212,238.143c-0.429,0.258-0.905,0.438-1.478,0.711c-0.113-0.707-0.203-1.263-0.291-1.818
		c-0.375-2.351-1.194-4.523-2.616-6.442c5.866-3.913,10.777-8.703,14.888-13.964c1.204,0.814,1.641,1.813,1.559,3.178
		c-0.048,0.8-0.032,1.633-0.257,2.388C258.008,228.927,254.35,234.46,248.212,238.143z M276.826,253.894
		c-1.329,5.303-1.55,10.67-1.104,16.089c0.014,0.172,0.039,0.344,0.032,0.515c-0.007,0.163-0.048,0.324-0.074,0.486
		c-1.194-5.354-1.845-10.682-1.468-16.11c0.415-5.982,0.144-11.95-0.879-17.863c-0.833-4.817-2.642-9.262-5.452-13.279
		c-0.094-0.134-0.209-0.252-0.326-0.369c0.144-0.712,0.238-1.437,0.302-2.168c0.051,0.055,0.094,0.113,0.148,0.168
		c2.463,2.481,4.192,5.454,5.625,8.609c2.314,5.096,3.197,10.522,3.676,16.042C277.537,248.665,277.474,251.308,276.826,253.894z
		 M299.886,245.532c-3.735-2.834-6.922-6.199-9.696-9.971c-1.6-2.175-3.21-4.342-4.852-6.485c-3.96-5.172-8.954-8.879-14.852-11.291
		c1.44-0.538,2.789-1.228,4.022-2.095c4.25,1.771,7.961,4.336,11.078,7.77c3.76,4.143,6.931,8.716,9.923,13.431
		c1.381,2.177,2.829,4.336,4.474,6.314c2.377,2.858,5.317,4.896,9.206,5.157c0.483,0.033,0.958,0.173,1.437,0.263
		C306.553,249.238,303.053,247.935,299.886,245.532z"/>
</g>
</svg>
