<svg xmlns="http://www.w3.org/2000/svg" viewBox="0 0 503.58 202.1"><defs><style>.cls-1{font-size:166.38px;font-family:Rubik-Light, Rubik;font-weight:300;}.cls-1,.cls-2,.cls-3{fill:#8f1e1e;stroke:#8f1e1e;stroke-miterlimit:10;}.cls-1,.cls-2{stroke-width:5px;}</style></defs><title>caviste-red-bg-w</title><g id="Calque_1" data-name="Calque 1"><text class="cls-1" transform="translate(2.5 149.37)">c</text><text class="cls-1" transform="translate(82.17 149.31)">a</text><text class="cls-1" transform="translate(292.61 146.54) rotate(0.72)">s</text><text class="cls-1" transform="translate(366.62 155.68)">t</text><text class="cls-1" transform="translate(410.24 154.36)">e</text><path class="cls-2" d="M359.21,385l-36.88-77.31-.43-1.84a3.11,3.11,0,0,1,1.07-2.4,3.84,3.84,0,0,1,2.61-1.08l3.95-.11a4.22,4.22,0,0,1,2.76.76,4.92,4.92,0,0,1,1.46,1.65l33.9,72,29.8-73.78a4.68,4.68,0,0,1,1.37-1.72,4.17,4.17,0,0,1,2.71-.92l4-.12a3.89,3.89,0,0,1,2.67.94,3.12,3.12,0,0,1,1.2,2.33l-.33,1.87-32.48,79.25q-1.76,4.27-7,4.42l-3,.08C363,389.14,360.54,387.8,359.21,385Z" transform="translate(-162.92 -235)"/><path class="cls-2" d="M428.73,249.5H445.5s0,19,.28,29.68c.23,8.42,13.58,14.52,14.84,24s.64,23.36-1.89,29.68-32.84,13.89-33.47,13.89,30.94,5.05,32.84,7.58-22.74,11.37-22.74,11.37L431.57,367s25.16.43,27.16,4.42c.95,1.89-10.1,5.05-10.1,5.05l-18.32,5.68,24.63,5.69s6.95,1.89-1.89,5.05c0,0-12.45,5.25-14.84,8.84-1.27,1.9-2.21,3.16-2.21,12s-3.16,10.74-3.16,10.74l-1.27-15.79s-.63-7.58,3.16-10.74,14.53-7.58,14.53-7.58L425.89,384s-7.58,3.16-8.84-1.26c0,0-1.89-3.79,8.84-3.79L446.1,372s-15.45-3-19-3.79c-2.48-.54-10.1,3.79-10.1-1.26s8.76-3.91,11.68-4.42c5.46-1,19.9-8.21,19.9-8.21l-30.58-4.26a3,3,0,0,1-1.81-1c-1.16-1.42-1-5.27,4.28-4.81l25-9.47s-31-6.94-31.58-13.26-2.52-17.68,2.53-24.63,11.05-13.26,12.31-18.31C429.82,274.22,428.73,249.5,428.73,249.5Z" transform="translate(-162.92 -235)"/><line class="cls-2" x1="21.58" y1="173.5" x2="247.58" y2="173.5"/><line class="cls-2" x1="290.08" y1="173.5" x2="498.58" y2="173.5"/><rect class="cls-3" x="265.58" y="0.5" width="17" height="9"/></g></svg>