<?xml version="1.0" encoding="utf-8"?>
<!-- Generator: Adobe Illustrator 23.0.1, SVG Export Plug-In . SVG Version: 6.00 Build 0)  -->
<svg version="1.1" xmlns="http://www.w3.org/2000/svg" xmlns:xlink="http://www.w3.org/1999/xlink" x="0px" y="0px"
	 viewBox="0 0 800 660" style="enable-background:new 0 0 800 660;" xml:space="preserve">
<style type="text/css">
	.st0{display:none;}
	.st1{fill:#8F1E1E;stroke:#8F1E1E;stroke-width:5;stroke-miterlimit:10;}
</style>
<g id="Calque_3">
</g>
<g id="Calque_4" class="st0">
</g>
<g id="Calque_1">
	<text transform="matrix(1 0 0 1 148.415 -272.6309)" class="st1" style="font-family:'Rubik-Light'; font-size:168.7362px;">c</text>
	<text transform="matrix(1 0 0 1 238.0898 -271.6895)" class="st1" style="font-family:'Rubik-Light'; font-size:166.3798px;">a</text>
	<g>
		
			<text transform="matrix(0.9999 0.0125 -0.0125 0.9999 462.5654 -275.467)" class="st1" style="font-family:'Rubik-Light'; font-size:166.3798px;">s</text>
	</g>
	<text transform="matrix(1 0 0 1 533.5313 -272.3233)" class="st1" style="font-family:'Rubik-Light'; font-size:166.3798px;">t</text>
	<text transform="matrix(1 0 0 1 579.1582 -274.6358)" class="st1" style="font-family:'Rubik-Light'; font-size:166.3798px;">e</text>
	<g>
		<path class="st1" d="M356.86-278.8l-30.61-71.43l-0.33-1.69c0-0.82,0.33-1.54,1-2.16c0.67-0.62,1.44-0.92,2.33-0.92h3.49
			c1,0,1.8,0.26,2.41,0.77c0.61,0.51,1.02,1.03,1.25,1.54l28.12,66.5l28.12-66.5c0.22-0.51,0.64-1.02,1.25-1.54
			c0.61-0.51,1.41-0.77,2.41-0.77h3.49c0.89,0,1.66,0.31,2.33,0.92c0.67,0.62,1,1.34,1,2.16l-0.33,1.69l-30.61,71.43
			c-1.11,2.57-3.22,3.85-6.32,3.85h-2.66C360.08-274.95,357.97-276.24,356.86-278.8z"/>
	</g>
	<path class="st1" d="M445.5-415.5c0,0-5.4-0.8-8.33,5.25c-2.93,6.05-3.48,10.03-3.48,10.03s-1.26-5.12-3.42-10.04
		c-2.16-4.92-9.77-5.24-9.77-5.24H445.5z"/>
	<path class="st1" d="M424.73-406.5h16.42c0,0-1.5,20.45,0.63,29.68c1.89,8.21,13.58,14.52,14.84,24
		c1.26,9.47,0.63,23.37-1.89,29.68c-2.53,6.31-32.84,13.89-33.47,13.89s30.94,5.05,32.84,7.58c1.89,2.53-22.73,11.37-22.73,11.37
		l-3.79,1.26c0,0,25.16,0.43,27.15,4.42c0.95,1.89-10.1,5.05-10.1,5.05l-18.31,5.68l24.63,5.68c0,0,6.95,1.89-1.89,5.05
		c0,0-12.44,5.25-14.84,8.84c-1.26,1.89-2.21,3.16-2.21,12s-3.16,10.74-3.16,10.74l-1.26-15.79c0,0-0.63-7.58,3.16-10.74
		c3.79-3.16,14.52-7.58,14.52-7.58l-23.37-6.31c0,0-7.58,3.16-8.84-1.26c0,0-1.89-3.79,8.84-3.79l20.21-6.95
		c0,0-15.45-3.03-18.94-3.79c-2.49-0.54-10.1,3.79-10.1-1.26c0-5.05,8.76-3.91,11.68-4.42c5.46-0.96,19.89-8.21,19.89-8.21
		l-30.58-4.26c-0.71-0.12-1.35-0.49-1.81-1.04c-1.16-1.42-1.03-5.27,4.28-4.8l24.94-9.47c0,0-30.94-6.95-31.57-13.26
		c-0.63-6.32-2.53-17.68,2.53-24.63s11.05-13.26,12.31-18.31C425.82-381.78,424.73-406.5,424.73-406.5z"/>
</g>
</svg>
